<svg xmlns="http://www.w3.org/2000/svg" viewBox="0 0 512 512">
    <rect width="512" height="512" fill="#1e293b" />
    <path
        d="M256 100c-23.57 0-42.67 19.1-42.67 42.67v42.66H170.67c-23.57 0-42.67 19.1-42.67 42.67v85.33c0 23.57 19.1 42.67 42.67 42.67h42.66v42.67c0 23.57 19.1 42.67 42.67 42.67s42.67-19.1 42.67-42.67V356h42.66c23.57 0 42.67-19.1 42.67-42.67V228c0-23.57-19.1-42.67-42.67-42.67h-42.66v-42.66C298.67 119.1 279.57 100 256 100z"
        fill="#60a5fa" />
    <circle cx="256" cy="256" r="64" fill="#3b82f6" />
    <rect x="149.33" y="330.67" width="213.34" height="21.33" rx="10.67" fill="#94a3b8" />
    <rect x="149.33" y="160" width="213.34" height="21.33" rx="10.67" fill="#94a3b8" />
    <rect x="149.33" y="245.33" width="32" height="21.33" rx="10.67" fill="#94a3b8" />
    <rect x="330.67" y="245.33" width="32" height="21.33" rx="10.67" fill="#94a3b8" />
</svg>